<svg width="20" height="22" viewBox="0 0 20 22" fill="none" xmlns="http://www.w3.org/2000/svg">
<path d="M0.566406 22L8.14453 11.1016L0.957031 0.984375H4.55078L8.22266 6.41406C8.43099 6.7526 8.71745 7.20833 9.08203 7.78125C9.44661 8.32812 9.70703 8.70573 9.86328 8.91406H10.0195C10.1758 8.6276 10.4362 8.19792 10.8008 7.625C11.1914 7.05208 11.4648 6.64844 11.6211 6.41406L15.2539 0.984375H18.8477L11.7383 11.1016L19.3164 22H15.7227L11.6211 15.75C10.944 14.7865 10.4102 13.9922 10.0195 13.3672H9.86328C9.73307 13.6016 9.21224 14.3958 8.30078 15.75L4.16016 22H0.566406Z" fill="#0A1C26"/>
</svg>
